<?xml version="1.0" encoding="UTF-8" standalone="no"?>
<svg
   height="30"
   version="1.2"
   viewBox="0 0 24 24"
   width="30"
   id="svg8"
   sodipodi:docname="cart-icon.svg"
   xmlns:inkscape="http://www.inkscape.org/namespaces/inkscape"
   xmlns:sodipodi="http://sodipodi.sourceforge.net/DTD/sodipodi-0.dtd"
   xmlns="http://www.w3.org/2000/svg"
   xmlns:svg="http://www.w3.org/2000/svg"><defs
   id="defs12" />
<sodipodi:namedview
   id="namedview10"
   pagecolor="#ffffff"
   bordercolor="#000000"
   borderopacity="0.25"
   inkscape:showpageshadow="2"
   inkscape:pageopacity="0.0"
   inkscape:pagecheckerboard="0"
   inkscape:deskcolor="#d1d1d1"
   showgrid="false" />
<path
   d="M 20.756,5.345 A 1.003,1.003 0 0 0 20,5 H 6.181 L 5.986,3.836 A 1,1 0 0 0 5,3 H 2.75 a 1,1 0 1 0 0,2 h 1.403 l 1.86,11.164 c 0.008,0.045 0.031,0.082 0.045,0.124 0.016,0.053 0.029,0.103 0.054,0.151 a 0.982,0.982 0 0 0 0.12,0.179 c 0.031,0.039 0.059,0.078 0.095,0.112 a 0.96,0.96 0 0 0 0.193,0.13 c 0.038,0.021 0.071,0.049 0.112,0.065 A 0.97,0.97 0 0 0 6.999,17 H 18 a 1,1 0 1 0 0,-2 H 7.847 L 7.681,14 H 19 a 1,1 0 0 0 0.99,-0.858 l 1,-7 A 1.002,1.002 0 0 0 20.756,5.345 Z M 18.847,7 18.562,9 H 15 V 7 Z M 14,7 V 9 H 11 V 7 Z m 0,3 v 2 H 11 V 10 Z M 10,7 V 9 H 7 A 0.481,0.481 0 0 0 6.852,9.03 L 6.514,7 Z M 7.014,10 H 10 v 2 H 7.347 Z M 15,12 v -2 h 3.418 l -0.285,2 z"
   fill="#ab4f8b"
   id="path2"
   style="fill:#4d4d4d" />
/&gt;<circle
   cx="8.5"
   cy="19.5"
   r="1.5"
   fill="#ab4f8b"
   id="circle4"
   style="fill:#4d4d4d" />
<circle
   cx="17.5"
   cy="19.5"
   r="1.5"
   fill="#ab4f8b"
   id="circle6"
   style="fill:#4d4d4d" />
</svg>
