<?xml version="1.0" encoding="UTF-8" standalone="no"?>
<!-- Created with Inkscape (http://www.inkscape.org/) -->

<svg
   version="1.1"
   id="svg2"
   width="600"
   height="600"
   viewBox="0 0 600 600"
   sodipodi:docname="36040.svg"
   inkscape:export-filename="..\OneDrive\Dokumenti\21.-22. ak. god\Razvoj programske potpore za web\Labosi\1. labos\images\logo_transparent.png"
   inkscape:export-xdpi="48"
   inkscape:export-ydpi="48"
   inkscape:version="1.2.2 (732a01da63, 2022-12-09)"
   xmlns:inkscape="http://www.inkscape.org/namespaces/inkscape"
   xmlns:sodipodi="http://sodipodi.sourceforge.net/DTD/sodipodi-0.dtd"
   xmlns="http://www.w3.org/2000/svg"
   xmlns:svg="http://www.w3.org/2000/svg">
  <defs
     id="defs6" />
  <sodipodi:namedview
     id="namedview4"
     pagecolor="#ffffff"
     bordercolor="#000000"
     borderopacity="0.25"
     inkscape:showpageshadow="2"
     inkscape:pageopacity="0.0"
     inkscape:pagecheckerboard="0"
     inkscape:deskcolor="#d1d1d1"
     showgrid="false"
     inkscape:zoom="1.0355437"
     inkscape:cx="62.286121"
     inkscape:cy="297.91114"
     inkscape:window-width="1920"
     inkscape:window-height="1000"
     inkscape:window-x="-9"
     inkscape:window-y="-9"
     inkscape:window-maximized="1"
     inkscape:current-layer="g8" />
  <g
     id="g8"
     inkscape:groupmode="layer"
     inkscape:label="ink_ext_XXXXXX"
     transform="matrix(1.3333333,0,0,-1.3333333,0,600)">
    <g
       id="g2201"
       transform="matrix(3.0894589,0,0,3.0894589,-469.38987,-459.53202)">
      <path
         d="m 192.345,218.04 c 0.63,2.168 1.64,2.106 2.061,3.636 0.254,0.916 0.078,1.571 -0.102,1.951 0.028,0.086 0.061,0.168 0.086,0.253 1.01,3.199 1.538,6.524 1.583,9.869 0.012,0.794 0.04,1.587 0.102,2.381 0.212,-1.346 0.527,-2.798 0.969,-3.71 0.749,-1.538 1.018,-4.184 1.117,-6.135 0.114,-2.274 -0.634,-4.539 -2.18,-6.216 -0.09,-0.103 -0.184,-0.201 -0.282,-0.299 -0.512,-0.503 -0.782,-1.194 -0.79,-1.91 -0.02,-2.27 0,-7.366 0.475,-12.519 l -0.009,0.004 c 0,-0.274 0.045,-0.658 0.115,-1.071 0.004,-0.045 0.008,-0.086 0.012,-0.127 h 0.012 c 0.234,-1.284 0.72,-2.798 1.088,-2.454 0.368,0.597 0.871,0.483 0.871,0.483 -0.036,-0.54 -0.237,-0.917 0.074,-1.154 0.27,-0.208 0.507,-0.368 0.847,-0.401 1.071,-0.094 2.932,-0.192 2.932,0.356 0,0.675 -0.593,1.824 -1.799,2.09 -1.056,0.07 -1.24,1.08 -1.24,1.08 0,0 -0.908,7.529 1.08,10.159 1.865,2.47 4.09,5.681 4.671,6.519 0.008,0.013 0.016,0.025 0.024,0.037 0.078,0.111 0.119,0.172 0.119,0.172 0.008,-0.004 0.02,-0.008 0.029,-0.016 0.053,-0.029 0.11,-0.054 0.163,-0.078 0.057,-0.029 0.123,-0.053 0.18,-0.082 0.004,0 0.004,-0.004 0.008,-0.004 v -0.004 l 0.049,-0.618 0.172,-2.073 c 0.029,-0.352 0,-0.712 -0.106,-1.051 -0.221,-0.687 -0.471,-2.098 0.613,-3.215 0.299,-0.311 0.552,-0.654 0.708,-1.051 0.462,-1.174 6.045,-11.439 6.544,-10.973 0.372,0.593 0.871,0.482 0.871,0.482 -0.037,-0.539 -0.233,-0.916 0.073,-1.153 0.274,-0.213 0.593,-0.372 0.937,-0.401 1.071,-0.094 2.932,-0.192 2.932,0.352 0,0.679 -0.662,1.828 -1.869,2.094 -1.055,0.069 -1.435,0.904 -1.435,0.904 -3.792,6.499 -3.792,12.421 -3.608,14.727 0.037,0.504 0.086,0.835 0.107,0.962 0.151,0.028 0.298,0.057 0.437,0.094 0.082,0.02 0.16,0.041 0.238,0.061 l 0.654,-2.106 c 0.094,-0.303 0.372,-0.495 0.671,-0.495 0.069,0 0.139,0.008 0.208,0.033 0.368,0.114 0.573,0.507 0.458,0.875 l -0.683,2.212 c 0.994,0.512 1.694,1.162 2.127,1.64 0.352,0.389 0.879,0.54 1.387,0.43 5.198,-1.162 10.241,-0.953 13.284,-0.634 0.196,0.02 0.38,0.041 0.56,0.061 -0.037,-0.282 -0.074,-0.593 -0.111,-0.928 -0.118,-1.194 -0.216,-2.695 -0.18,-4.323 0.07,-3.239 -0.674,-4.008 -0.809,-5.571 -0.283,-3.329 -0.017,-6.257 -0.017,-6.257 0.18,-1.571 0.953,-3.415 1.452,-2.945 0.372,0.593 0.871,0.483 0.871,0.483 -0.036,-0.54 -0.233,-0.916 0.074,-1.153 0.274,-0.213 0.507,-0.373 0.851,-0.401 1.067,-0.094 2.932,-0.197 2.932,0.351 0,0.679 -0.597,1.829 -1.804,2.094 -1.055,0.07 -1.186,1.571 -1.186,1.571 -0.339,3.149 0.029,6.29 0.642,8.311 0.508,1.672 2.029,5.496 2.679,7.104 0.086,0.212 0.156,0.384 0.205,0.507 0.082,-0.033 0.159,-0.066 0.237,-0.098 0.066,-0.029 0.131,-0.058 0.196,-0.082 0.058,-0.029 0.111,-0.049 0.168,-0.074 v -0.004 c 0.053,-0.024 0.11,-0.045 0.164,-0.069 0.233,-1.869 0.691,-4.254 1.574,-6.982 0.127,-0.405 0.27,-0.818 0.417,-1.239 0.246,-1.1 0.45,-2.213 0.593,-3.337 0.066,-0.475 0.213,-1.125 0.393,-1.808 0.18,-0.679 0.385,-1.386 0.565,-1.967 0.102,-0.397 0.224,-0.79 0.363,-1.166 0.029,-0.09 0.05,-0.143 0.05,-0.143 h 0.008 c 0.572,-1.497 1.349,-2.654 1.742,-2.29 0.368,0.597 0.871,0.482 0.871,0.482 -0.037,-0.54 -0.237,-0.916 0.074,-1.153 0.27,-0.209 0.503,-0.368 0.846,-0.401 1.072,-0.094 2.933,-0.192 2.933,0.356 0,0.675 -0.593,1.828 -1.8,2.09 -1.055,0.069 -1.435,1.182 -1.435,1.182 -1.186,2.397 -2.008,6.302 -1.624,8.175 0.356,1.755 0.491,5.313 0.528,6.679 1.345,-0.012 2.679,0.229 4.18,0.753 3.893,1.906 7.472,1.325 8.057,-0.197 1.664,-3.231 3.815,-4.899 4.527,-5.386 0.168,-0.119 0.307,-0.27 0.421,-0.437 0.81,-1.178 1.841,-1.62 2.442,-1.788 0.323,-0.086 0.589,-0.29 0.806,-0.548 0.805,-0.977 2.237,-1.358 2.237,-1.358 2.625,-0.699 3.443,1.17 2.257,3.06 -0.781,1.476 -1.014,6.302 -1.014,6.302 0.012,0.025 0.025,0.049 0.033,0.07 0.548,1.194 0.327,2.601 -0.524,3.603 -0.294,0.347 -0.613,0.904 -0.638,1.701 v 0.012 c 1.379,1.297 3.464,1.608 3.464,1.608 -1.856,1.251 -4.233,0.163 -4.584,-0.008 -0.152,0.073 -0.307,0.139 -0.462,0.188 -0.119,0.037 -0.238,0.069 -0.352,0.098 l 0.028,0.744 c 0,1.489 -0.364,3.297 -1.84,4.499 -0.237,0.196 -0.589,0.164 -0.781,-0.078 -0.278,-0.351 -0.663,-0.928 -0.924,-1.685 -0.07,-0.204 -0.131,-0.425 -0.18,-0.654 -0.017,-0.078 -0.033,-0.16 -0.045,-0.237 -0.013,-0.082 -0.025,-0.164 -0.033,-0.246 l -0.004,0.004 c -0.098,0.082 -0.201,0.164 -0.295,0.246 -5.419,4.511 -7.885,8.216 -7.885,8.216 0,0 -4.127,6.597 -8.02,7.301 -6.429,1.157 -12.123,3.206 -16.814,3.112 -3.93,-0.078 -10.609,-2.356 -24.036,-0.953 0,0 -2.315,0.364 -4.053,-0.822 -0.994,-0.65 -1.787,-1.681 -2.315,-2.683 -0.953,-1.803 -1.345,-3.861 -1.493,-5.881 -0.118,-1.636 0,-3.251 0.009,-4.883 0.004,-1.882 -0.189,-3.751 -0.499,-5.599 -0.16,-0.941 -0.348,-1.878 -0.581,-2.806 -0.033,-0.127 -0.074,-0.254 -0.106,-0.384 -0.352,-0.156 -0.778,-0.483 -1.158,-1.17 -0.74,-1.325 0.168,-4.675 0.168,-4.675"
         style="fill:#f2f2f0;fill-opacity:1;fill-rule:nonzero;stroke:none;stroke-width:0.1"
         id="path268" />
      <path
         d="m 248.924,221.729 c 0.444,0.111 0.933,0.201 1.457,0.259 0.522,0.055 1.08,0.083 1.658,0.032 0.576,-0.046 1.174,-0.16 1.749,-0.393 0.57,-0.237 1.119,-0.607 1.497,-1.136 0.366,-0.523 0.583,-1.098 0.883,-1.587 0.308,-0.5 0.642,-0.975 0.989,-1.415 0.692,-0.885 1.433,-1.627 2.133,-2.197 0.171,-0.144 0.349,-0.272 0.505,-0.414 0.159,-0.147 0.289,-0.295 0.408,-0.439 0.234,-0.289 0.425,-0.544 0.602,-0.739 0.176,-0.194 0.329,-0.335 0.443,-0.418 0.112,-0.086 0.177,-0.126 0.177,-0.126 0,0 -0.068,0.034 -0.189,0.109 -0.121,0.074 -0.292,0.198 -0.483,0.384 -0.193,0.185 -0.405,0.431 -0.654,0.698 -0.245,0.277 -0.564,0.507 -0.939,0.78 -0.725,0.55 -1.54,1.264 -2.256,2.159 -0.361,0.445 -0.709,0.925 -1.032,1.434 -0.328,0.523 -0.554,1.088 -0.89,1.554 -0.322,0.465 -0.808,0.806 -1.329,1.032 -0.526,0.222 -1.091,0.34 -1.643,0.391 -1.105,0.101 -2.163,0.009 -3.04,-0.173 -0.881,-0.182 -1.601,-0.41 -2.094,-0.599 -0.494,-0.185 -0.772,-0.307 -0.772,-0.307 0,0 0.262,0.151 0.744,0.374 0.483,0.217 1.186,0.518 2.076,0.737"
         style="fill:#343537;fill-opacity:1;fill-rule:nonzero;stroke:none;stroke-width:0.1"
         id="path270" />
      <path
         d="m 218.726,223.305 c 0.874,-0.085 1.897,-0.144 2.992,-0.206 1.095,-0.056 2.264,-0.092 3.433,-0.111 1.17,-0.017 2.34,-0.002 3.431,0.064 0.549,0.034 1.078,0.066 1.581,0.097 0.505,0.028 0.977,0.066 1.426,0.078 0.448,0.019 0.877,-0.052 1.218,-0.169 0.351,-0.104 0.636,-0.254 0.86,-0.379 0.226,-0.126 0.395,-0.237 0.514,-0.307 0.118,-0.07 0.181,-0.107 0.181,-0.107 0,0 -0.268,0.12 -0.737,0.33 -0.46,0.213 -1.168,0.441 -2.024,0.364 -0.867,-0.076 -1.89,-0.229 -2.991,-0.31 -1.105,-0.088 -2.284,-0.118 -3.462,-0.117 -1.179,10e-4 -2.357,0.055 -3.458,0.143 -1.102,0.082 -2.125,0.223 -2.998,0.356 -0.874,0.129 -1.593,0.294 -2.096,0.405 -0.501,0.118 -0.784,0.199 -0.784,0.199 0,0 0.292,-0.037 0.802,-0.103 0.508,-0.07 1.239,-0.137 2.112,-0.227"
         style="fill:#343537;fill-opacity:1;fill-rule:nonzero;stroke:none;stroke-width:0.1"
         id="path272" />
      <path
         d="m 237.58,217.814 c -0.231,1.537 -0.269,2.573 -0.269,2.573 0,0 0.044,-0.255 0.12,-0.7 0.074,-0.446 0.201,-1.079 0.355,-1.836 0.156,-0.757 0.359,-1.637 0.628,-2.558 0.265,-0.926 0.598,-1.909 0.818,-2.934 0.198,-1.029 0.287,-2.063 0.406,-3.02 0.062,-0.479 0.115,-0.941 0.187,-1.375 0.074,-0.425 0.182,-0.84 0.262,-1.217 0.333,-1.513 0.525,-2.529 0.525,-2.529 0,0 -0.309,0.988 -0.73,2.48 -0.099,0.378 -0.224,0.769 -0.325,1.215 -0.095,0.438 -0.176,0.902 -0.241,1.384 -0.134,0.962 -0.242,1.988 -0.449,2.987 -0.197,0.999 -0.512,1.983 -0.765,2.922 -0.26,0.943 -0.396,1.842 -0.522,2.608"
         style="fill:#343537;fill-opacity:1;fill-rule:nonzero;stroke:none;stroke-width:0.1"
         id="path274" />
      <path
         d="m 228.852,246.06 c -0.717,0.076 -1.436,0.099 -2.15,0.103 -0.707,-0.019 -1.435,-0.062 -2.144,-0.133 -1.424,-0.131 -2.826,-0.318 -4.185,-0.497 -1.359,-0.187 -2.681,-0.338 -3.939,-0.445 -1.259,-0.111 -2.455,-0.154 -3.555,-0.167 -2.201,-0.034 -4.032,0.085 -5.31,0.166 -1.278,0.091 -2.005,0.177 -2.005,0.177 0,0 0.731,-0.015 2.011,-0.041 1.279,-0.024 3.107,-0.003 5.293,0.092 1.093,0.049 2.272,0.131 3.515,0.281 1.243,0.148 2.549,0.35 3.907,0.539 1.358,0.194 2.763,0.398 4.206,0.546 0.723,0.08 1.444,0.131 2.194,0.16 0.742,0.004 1.488,-0.011 2.226,-0.084 2.962,-0.293 5.8,-1.118 8.447,-1.805 1.326,-0.344 2.597,-0.677 3.827,-0.939 1.227,-0.267 2.423,-0.576 3.406,-1.144 1,-0.561 1.701,-1.305 2.325,-1.947 0.616,-0.654 1.105,-1.264 1.493,-1.775 0.389,-0.51 0.667,-0.931 0.858,-1.217 0.187,-0.287 0.287,-0.441 0.287,-0.441 0,0 -0.428,0.597 -1.251,1.573 -0.413,0.487 -0.93,1.065 -1.571,1.677 -0.645,0.597 -1.392,1.295 -2.329,1.785 -0.944,0.505 -2.089,0.765 -3.32,0.991 -1.237,0.223 -2.547,0.506 -3.876,0.849 -2.661,0.662 -5.483,1.445 -8.36,1.696"
         style="fill:#343537;fill-opacity:1;fill-rule:nonzero;stroke:none;stroke-width:0.1"
         id="path276" />
      <path
         d="m 195.971,218.731 c 0.157,0.249 0.349,0.458 0.528,0.657 0.707,0.781 1.272,1.715 1.674,2.708 0.408,0.994 0.645,2.05 0.743,3.109 0.096,1.059 0.08,2.116 -0.028,3.127 -0.108,1.012 -0.284,1.984 -0.526,2.885 -0.228,0.895 -0.592,1.724 -0.819,2.524 -0.476,1.592 -0.641,2.968 -0.745,3.923 -0.05,0.478 -0.069,0.856 -0.085,1.113 -0.012,0.258 -0.019,0.395 -0.019,0.395 0,0 0.052,-0.548 0.196,-1.497 0.141,-0.948 0.402,-2.297 0.907,-3.854 0.246,-0.778 0.629,-1.58 0.898,-2.509 0.279,-0.912 0.485,-1.901 0.599,-2.936 0.12,-1.034 0.148,-2.116 0.059,-3.21 -0.093,-1.093 -0.317,-2.208 -0.752,-3.246 -0.432,-1.037 -1.031,-2.005 -1.784,-2.821 -0.377,-0.393 -0.681,-0.774 -0.73,-1.25 -0.064,-0.497 -0.008,-1.014 -0.009,-1.542 -0.014,-2.058 -0.026,-3.979 -0.005,-5.625 0.015,-1.646 0.037,-3.018 0.076,-3.977 0.041,-0.961 0.064,-1.509 0.064,-1.509 0,0 -0.067,0.545 -0.15,1.503 -0.077,0.959 -0.178,2.33 -0.243,3.977 -0.061,1.647 -0.114,3.57 -0.14,5.63 -0.002,0.499 -0.068,1.031 -0.004,1.59 0.035,0.294 0.137,0.584 0.295,0.835"
         style="fill:#343537;fill-opacity:1;fill-rule:nonzero;stroke:none;stroke-width:0.1"
         id="path278" />
      <path
         d="m 209.763,215.663 c 0.038,-0.322 0.112,-0.779 0.195,-1.326 0.044,-0.274 0.093,-0.569 0.155,-0.88 0.062,-0.31 0.128,-0.637 0.197,-0.976 0.139,-0.676 0.322,-1.389 0.525,-2.096 0.195,-0.71 0.413,-1.413 0.646,-2.063 0.117,-0.325 0.23,-0.639 0.336,-0.937 0.115,-0.296 0.224,-0.575 0.325,-0.833 0.217,-0.507 0.379,-0.942 0.518,-1.236 0.127,-0.299 0.199,-0.47 0.199,-0.47 0,0 -0.096,0.159 -0.263,0.437 -0.165,0.279 -0.394,0.683 -0.645,1.183 -0.239,0.504 -0.526,1.091 -0.773,1.744 -0.251,0.652 -0.489,1.359 -0.702,2.074 -0.192,0.72 -0.358,1.448 -0.484,2.135 -0.125,0.687 -0.193,1.337 -0.242,1.892 -0.052,0.556 -0.052,1.022 -0.06,1.347 0.005,0.325 0.007,0.511 0.007,0.511 0,0 0.024,-0.184 0.066,-0.506"
         style="fill:#343537;fill-opacity:1;fill-rule:nonzero;stroke:none;stroke-width:0.1"
         id="path280" />
      <path
         d="m 231.53,212.655 c 0.232,0.962 0.584,1.879 0.901,2.736 0.321,0.857 0.66,1.641 0.939,2.317 0.572,1.346 0.992,2.227 0.992,2.227 0,0 -0.308,-0.926 -0.796,-2.303 -0.243,-0.689 -0.527,-1.492 -0.831,-2.352 -0.301,-0.861 -0.632,-1.774 -0.842,-2.712 -0.231,-0.935 -0.382,-1.893 -0.481,-2.795 -0.096,-0.902 -0.159,-1.748 -0.173,-2.476 -0.018,-0.728 -0.011,-1.335 0.002,-1.761 0.016,-0.427 0.025,-0.67 0.025,-0.67 0,0 -0.035,0.241 -0.097,0.663 -0.043,0.425 -0.124,1.033 -0.139,1.767 -0.018,0.733 -0.023,1.593 0.06,2.509 0.084,0.915 0.221,1.889 0.44,2.85"
         style="fill:#343537;fill-opacity:1;fill-rule:nonzero;stroke:none;stroke-width:0.1"
         id="path282" />
      <path
         d="m 267.336,212.136 c -0.122,-0.129 -0.352,-0.451 -0.429,-0.603 0.136,-0.062 0.247,-0.157 0.225,-0.366 -0.026,-0.246 -0.191,-0.43 -0.369,-0.411 -0.144,0.031 -0.202,0.133 -0.232,0.2 -0.076,0.139 -0.068,0.28 -0.01,0.411 0.197,0.473 0.815,0.769 0.815,0.769"
         style="fill:#343537;fill-opacity:1;fill-rule:nonzero;stroke:none;stroke-width:0.1"
         id="path284" />
      <path
         d="m 264.424,220.123 c 0.349,-0.249 0.517,-0.613 0.373,-0.814 -0.143,-0.201 -0.542,-0.163 -0.891,0.085 -0.35,0.249 -0.517,0.613 -0.374,0.814 0.143,0.202 0.542,0.163 0.892,-0.085"
         style="fill:#343537;fill-opacity:1;fill-rule:nonzero;stroke:none;stroke-width:0.1"
         id="path286" />
      <path
         d="m 260.401,227.512 c 0.163,-0.947 0.432,-1.887 0.846,-2.757 -1.607,1.882 -1.718,4.839 -0.376,6.864 -0.194,-0.601 -0.399,-1.172 -0.494,-1.801 -0.117,-0.775 -0.071,-1.533 0.024,-2.306 0.036,-0.212 -0.027,0.214 0,0"
         style="fill:#343537;fill-opacity:1;fill-rule:nonzero;stroke:none;stroke-width:0.1"
         id="path288" />
      <path
         d="m 192.148,221.124 c 0.017,0.163 0.02,0.33 0.05,0.495 0.033,0.164 0.051,0.331 0.106,0.49 0.046,0.16 0.094,0.317 0.163,0.463 0.127,0.295 0.31,0.547 0.509,0.717 0.193,0.177 0.397,0.269 0.541,0.308 0.146,0.04 0.231,0.032 0.231,0.032 0,0 -0.294,-0.171 -0.56,-0.539 -0.07,-0.088 -0.132,-0.194 -0.2,-0.303 -0.057,-0.117 -0.132,-0.23 -0.18,-0.366 -0.064,-0.128 -0.11,-0.27 -0.155,-0.414 -0.054,-0.142 -0.069,-0.3 -0.112,-0.449 -0.037,-0.152 -0.048,-0.31 -0.074,-0.463 -0.027,-0.152 -0.029,-0.307 -0.044,-0.455 -0.033,-0.296 -0.02,-0.577 -0.037,-0.819 -0.004,-0.241 0.004,-0.443 0.004,-0.585 -0.003,-0.143 -0.004,-0.224 -0.004,-0.224 0,0 -0.08,0.314 -0.167,0.798 -0.018,0.121 -0.03,0.253 -0.046,0.394 -0.02,0.139 -0.029,0.288 -0.028,0.443 0.002,0.154 -0.016,0.314 0.003,0.477"
         style="fill:#343537;fill-opacity:1;fill-rule:nonzero;stroke:none;stroke-width:0.1"
         id="path290" />
      <path
         d="m 208.151,220.755 c 0.73,-0.113 1.589,0.014 2.301,0.176 0.68,0.154 1.331,0.408 1.931,0.764 1.1,0.652 2.07,1.583 2.775,2.652 -0.479,-1.464 -1.774,-2.712 -3.134,-3.365 -1.514,-0.727 -3.169,-0.673 -4.733,-0.155 0.287,-0.015 0.574,-0.045 0.86,-0.072 0.174,-0.027 -0.176,0.017 0,0"
         style="fill:#343537;fill-opacity:1;fill-rule:nonzero;stroke:none;stroke-width:0.1"
         id="path292" />
      <path
         d="m 212.441,219.075 c -0.083,0.28 -0.142,0.568 -0.177,0.786 -0.035,0.218 -0.04,0.368 -0.04,0.368 0,0 0.077,-0.129 0.165,-0.332 0.089,-0.202 0.195,-0.475 0.276,-0.756 0.084,-0.28 0.143,-0.567 0.178,-0.785 0.035,-0.218 0.04,-0.369 0.04,-0.369 0,0 -0.077,0.13 -0.166,0.332 -0.089,0.202 -0.195,0.476 -0.276,0.756"
         style="fill:#343537;fill-opacity:1;fill-rule:nonzero;stroke:none;stroke-width:0.1"
         id="path294" />
      <path
         d="m 208.591,219.268 c 0.055,-0.228 0.115,-0.532 0.15,-0.84 0.037,-0.308 0.049,-0.619 0.048,-0.853 -10e-4,-0.234 -0.021,-0.392 -0.021,-0.392 0,0 -0.055,0.15 -0.11,0.377 -0.055,0.228 -0.115,0.533 -0.149,0.841 -0.037,0.307 -0.048,0.618 -0.048,0.852 10e-4,0.234 0.021,0.392 0.021,0.392 0,0 0.055,-0.149 0.109,-0.377"
         style="fill:#343537;fill-opacity:1;fill-rule:nonzero;stroke:none;stroke-width:0.1"
         id="path296" />
      <path
         d="m 235.914,220.85 c 0,-0.061 0.004,-0.119 0.008,-0.18 0.058,-0.029 0.111,-0.049 0.168,-0.074 v -0.004 c 0.053,-0.024 0.11,-0.045 0.164,-0.069 0.233,-1.869 0.691,-4.254 1.574,-6.982 -0.057,0.225 -0.118,0.475 -0.176,0.741 -0.143,0.576 -0.294,1.259 -0.445,1.991 -0.144,0.732 -0.303,1.514 -0.438,2.299 -0.131,0.789 -0.237,1.579 -0.335,2.323 -0.103,0.74 -0.16,1.435 -0.229,2.033 -0.049,0.601 -0.09,1.1 -0.119,1.451 -0.02,0.352 -0.033,0.553 -0.033,0.553 0,0 -0.037,-0.201 -0.069,-0.553 -0.037,-0.351 -0.074,-0.854 -0.09,-1.46 -0.021,-0.605 -0.013,-1.312 0.02,-2.069"
         style="fill:#343537;fill-opacity:1;fill-rule:nonzero;stroke:none;stroke-width:0.1"
         id="path298" />
      <path
         d="m 204.062,220.862 c 0.078,0.111 0.119,0.172 0.119,0.172 0.008,-0.004 0.02,-0.008 0.029,-0.016 0.053,-0.029 0.11,-0.054 0.163,-0.078 0.057,-0.029 0.123,-0.053 0.18,-0.082 0.102,0.233 0.2,0.479 0.29,0.724 0.291,0.777 0.503,1.583 0.614,2.192 0.114,0.61 0.131,1.023 0.131,1.023 0,0 -0.062,-0.409 -0.237,-0.998 -0.176,-0.589 -0.467,-1.354 -0.827,-2.082 -0.151,-0.295 -0.306,-0.581 -0.462,-0.855"
         style="fill:#343537;fill-opacity:1;fill-rule:nonzero;stroke:none;stroke-width:0.1"
         id="path300" />
      <path
         d="m 231.53,222.232 c 0.478,0.078 0.965,0.008 1.399,-0.2 1.014,-0.483 1.934,-0.908 2.797,-1.28 -0.078,0.032 -0.155,0.065 -0.237,0.098 -0.049,-0.123 -0.119,-0.295 -0.205,-0.507 -0.061,0.028 -0.114,0.053 -0.143,0.061 -0.421,0.151 -0.842,0.315 -1.264,0.474 -0.413,0.16 -0.822,0.34 -1.239,0.487 -0.409,0.147 -0.769,0.094 -1.19,0.021 -0.556,-0.103 -1.112,-0.205 -1.669,-0.307 0.037,0.335 0.074,0.646 0.111,0.928 0.683,0.078 1.239,0.16 1.64,0.225"
         style="fill:#343537;fill-opacity:1;fill-rule:nonzero;stroke:none;stroke-width:0.1"
         id="path302" />
      <path
         d="m 207.501,219.89 0.034,-0.336 0.22,-2.164 c 0.036,-0.361 0.341,-0.63 0.696,-0.63 0.024,0 0.048,0.001 0.072,0.003 0.385,0.039 0.665,0.383 0.626,0.768 l -0.148,1.458 -0.075,0.74 c 0.583,-0.018 1.127,0.018 1.623,0.107 -0.021,-0.127 -0.07,-0.458 -0.107,-0.962 -0.427,-0.028 -0.857,-0.02 -1.288,0.012 0.019,-0.092 0.039,-0.188 0.058,-0.292 0.028,-0.158 0.065,-0.329 0.092,-0.511 0.027,-0.186 0.061,-0.363 0.087,-0.58 0.025,-0.267 -0.075,-0.563 -0.289,-0.762 -0.211,-0.202 -0.531,-0.296 -0.82,-0.246 -0.296,0.054 -0.554,0.251 -0.687,0.511 -0.068,0.126 -0.095,0.291 -0.098,0.403 -0.004,0.103 -0.009,0.204 -0.013,0.304 -0.012,0.401 -0.016,0.775 -0.009,1.097 0.002,0.127 0.006,0.242 0.01,0.351 -0.965,0.239 -1.899,0.591 -2.793,1.034 -0.02,0.009 -0.045,0.021 -0.082,0.037 l -0.049,0.618 c 1.07,-0.491 2.045,-0.791 2.94,-0.96"
         style="fill:#343537;fill-opacity:1;fill-rule:nonzero;stroke:none;stroke-width:0.1"
         id="path304" />
      <path
         d="m 263.202,226.674 c -0.078,-1.002 -0.282,-1.747 -0.315,-1.853 0.323,0.532 0.544,1.129 0.667,1.755 -0.119,0.037 -0.238,0.069 -0.352,0.098"
         style="fill:#343537;fill-opacity:1;fill-rule:nonzero;stroke:none;stroke-width:0.1"
         id="path306" />
      <path
         d="m 259.165,227.823 c 0.225,-1.35 0.933,-2.442 1.796,-3.472 -1.383,1.791 -1.681,3.39 -1.538,4.67 -0.098,0.082 -0.201,0.164 -0.295,0.246 -0.053,-0.475 -0.045,-0.961 0.037,-1.444"
         style="fill:#343537;fill-opacity:1;fill-rule:nonzero;stroke:none;stroke-width:0.1"
         id="path308" />
      <path
         d="m 167.587,194.766 c 14.044,3.94 28.402,6.386 42.954,7.39 16.584,1.144 33.257,0.174 49.656,-2.46 7.333,-1.178 14.591,-2.922 21.738,-4.93 -6.321,1.07 -12.613,2.182 -18.965,3.07 -7.992,1.117 -16.053,1.815 -24.111,2.225 -16.481,0.839 -32.94,0.083 -49.321,-1.826 -7.368,-0.859 -14.644,-2.228 -21.951,-3.469"
         style="fill:#f2f2f0;fill-opacity:1;fill-rule:nonzero;stroke:none;stroke-width:0.1"
         id="path310" />
      <path
         d="m 222.136,257.912 c 0.097,-0.081 0.11,-0.226 0.029,-0.323 l -0.443,-0.528 c -0.044,-0.052 -0.103,-0.093 -0.17,-0.109 -0.216,-0.06 -0.755,-0.275 -1.12,-1.027 -0.469,-0.96 -1.845,-2.133 -1.845,-2.133 0,0 -0.61,-0.483 -0.647,-1.248 -0.011,-0.257 -0.096,-0.508 -0.276,-0.69 -0.469,-0.475 -1.008,-0.283 -1.463,0.046 -0.173,0.122 -0.322,0.278 -0.419,0.466 -0.298,0.583 0.071,1.036 0.473,1.492 l 4.279,5.099 c 0.081,0.097 0.226,0.11 0.323,0.029 l -0.042,0.036 c 0.055,0.052 0.112,0.11 0.17,0.173 1.408,1.458 4.493,5.641 5.633,8.239 0.102,0.228 0.185,0.467 0.265,0.705 0.53,1.581 1.682,1.06 1.682,1.06 0,0 2.336,-1.162 4.85,-3.271 0,0 -2.727,-5.837 -8.233,-9.969 l -2.49,1.927 c 0,0 -0.322,0.242 -0.556,0.026"
         style="fill:#f2f2f0;fill-opacity:1;fill-rule:nonzero;stroke:none;stroke-width:0.1"
         id="path312" />
      <path
         d="m 216.988,252.717 c -0.106,-0.125 -0.293,-0.142 -0.418,-0.037 -0.126,0.106 -0.142,0.293 -0.037,0.418 0.105,0.126 0.293,0.142 0.418,0.037 0.125,-0.105 0.142,-0.292 0.037,-0.418"
         style="fill:#343537;fill-opacity:1;fill-rule:nonzero;stroke:none;stroke-width:0.1"
         id="path314" />
      <path
         d="m 218.964,255.072 c -0.106,-0.125 -0.293,-0.142 -0.418,-0.036 -0.126,0.105 -0.142,0.292 -0.037,0.417 0.106,0.126 0.293,0.142 0.418,0.037 0.126,-0.105 0.142,-0.292 0.037,-0.418"
         style="fill:#343537;fill-opacity:1;fill-rule:nonzero;stroke:none;stroke-width:0.1"
         id="path316" />
      <path
         d="m 220.94,257.427 c -0.105,-0.125 -0.293,-0.142 -0.418,-0.036 -0.126,0.105 -0.142,0.292 -0.037,0.418 0.106,0.125 0.293,0.141 0.418,0.036 0.126,-0.105 0.142,-0.292 0.037,-0.418"
         style="fill:#343537;fill-opacity:1;fill-rule:nonzero;stroke:none;stroke-width:0.1"
         id="path318" />
      <path
         d="m 232.809,266.031 c -1.373,-3.123 -3.535,-5.947 -6.094,-8.193 -0.578,-0.507 -1.197,-0.967 -1.832,-1.401 1.121,1.085 2.245,2.152 3.275,3.328 1.204,1.375 2.322,2.816 3.362,4.319 0.443,0.64 0.868,1.292 1.289,1.947"
         style="fill:#343537;fill-opacity:1;fill-rule:nonzero;stroke:none;stroke-width:0.1"
         id="path320" />
      <path
         d="m 221.908,257.654 c -0.147,-0.214 -0.27,-0.424 -0.514,-0.525 -0.335,-0.139 -0.624,-0.379 -0.84,-0.669 -0.194,-0.259 -0.311,-0.561 -0.486,-0.832 -0.212,-0.331 -0.474,-0.632 -0.744,-0.916 -0.494,-0.522 -1.154,-0.939 -1.442,-1.621 -0.132,-0.312 -0.083,-0.713 -0.267,-0.996 -0.148,-0.227 -0.425,-0.337 -0.679,-0.221 0.292,-0.036 0.56,0.122 0.649,0.408 0.046,0.148 0.033,0.308 0.058,0.46 0.028,0.176 0.081,0.348 0.153,0.51 0.301,0.675 0.965,1.113 1.46,1.638 0.275,0.291 0.544,0.596 0.757,0.936 0.165,0.262 0.293,0.536 0.499,0.771 0.231,0.264 0.525,0.479 0.857,0.6 0.235,0.086 0.361,0.284 0.539,0.457"
         style="fill:#343537;fill-opacity:1;fill-rule:nonzero;stroke:none;stroke-width:0.1"
         id="path322" />
      <path
         d="m 228.56,267.672 c -0.163,-0.195 -0.454,-0.221 -0.649,-0.057 -0.194,0.163 -0.22,0.454 -0.056,0.648 0.163,0.195 0.454,0.221 0.648,0.057 0.195,-0.163 0.221,-0.454 0.057,-0.648"
         style="fill:#343537;fill-opacity:1;fill-rule:nonzero;stroke:none;stroke-width:0.1"
         id="path324" />
      <path
         d="m 221.665,258.308 -0.85,0.714 c 0.055,0.052 0.112,0.11 0.17,0.173 l 0.68,-0.887"
         style="fill:#343537;fill-opacity:1;fill-rule:nonzero;stroke:none;stroke-width:0.1"
         id="path326" />
      <path
         d="m 228.966,259.459 c -0.23,0.288 -0.419,0.526 -0.537,0.671 -0.104,0.129 -0.259,0.203 -0.424,0.203 -0.048,0 -0.095,-0.007 -0.141,-0.019 l -3.155,3.76 c -0.675,-1.027 -1.41,-2.049 -2.085,-2.925 0.699,-0.922 1.487,-1.914 2.391,-2.992 l 0.207,-0.247 1.028,0.862 c -0.001,-0.132 0.045,-0.257 0.131,-0.355 0.12,-0.139 0.238,-0.272 0.356,-0.404 0.131,-0.148 0.255,-0.292 0.38,-0.438 0.672,0.62 1.285,1.254 1.849,1.884"
         style="fill:#343537;fill-opacity:1;fill-rule:nonzero;stroke:none;stroke-width:0.1"
         id="path328" />
      <path
         d="m 231.406,253.079 c 0.077,-0.535 0.305,-1.032 0.8,-1.348 0.477,-0.304 0.992,-0.159 1.363,0.256 0.295,0.33 0.35,0.787 0.194,1.195 -0.158,0.407 -0.482,0.694 -0.785,0.995 -0.399,0.397 -0.769,0.823 -1.136,1.25 -1.384,1.607 -3.147,3.867 -3.663,4.5 -0.079,0.098 -0.221,0.112 -0.317,0.032 l -0.07,-0.06 -7.298,8.698 c -0.482,0.574 -1.025,1.093 -1.63,1.536 -0.298,0.216 -0.631,0.429 -0.975,0.598 0,0 -0.236,-3.3 7.373,-12.367 l 1.163,0.975 0.289,-0.344 -0.063,-0.053 c -0.095,-0.079 -0.107,-0.222 -0.026,-0.315 0.471,-0.546 0.931,-1.015 1.343,-1.622 0.569,-0.841 1.491,-2.158 2.505,-2.711 0.162,-0.088 0.314,-0.194 0.453,-0.315 0.269,-0.238 0.416,-0.48 0.48,-0.9"
         style="fill:#f2f2f0;fill-opacity:1;fill-rule:nonzero;stroke:none;stroke-width:0.1"
         id="path330" />
      <path
         d="m 232.494,252.661 c 0.118,-0.141 0.329,-0.16 0.47,-0.041 0.142,0.119 0.16,0.329 0.042,0.471 -0.119,0.141 -0.33,0.16 -0.471,0.041 -0.141,-0.119 -0.16,-0.329 -0.041,-0.471"
         style="fill:#343537;fill-opacity:1;fill-rule:nonzero;stroke:none;stroke-width:0.1"
         id="path332" />
      <path
         d="m 230.134,255.474 c 0.118,-0.141 0.329,-0.16 0.47,-0.041 0.142,0.118 0.16,0.329 0.042,0.471 -0.119,0.141 -0.33,0.159 -0.471,0.041 -0.142,-0.119 -0.16,-0.33 -0.041,-0.471"
         style="fill:#343537;fill-opacity:1;fill-rule:nonzero;stroke:none;stroke-width:0.1"
         id="path334" />
      <path
         d="m 227.773,258.287 c 0.119,-0.142 0.33,-0.16 0.471,-0.042 0.142,0.119 0.16,0.33 0.041,0.471 -0.118,0.142 -0.329,0.16 -0.47,0.041 -0.142,-0.118 -0.16,-0.329 -0.042,-0.47"
         style="fill:#343537;fill-opacity:1;fill-rule:nonzero;stroke:none;stroke-width:0.1"
         id="path336" />
      <path
         d="m 218.374,270.163 c 0.304,-1.623 1.06,-3.17 1.899,-4.579 0.97,-1.627 2.046,-3.189 3.259,-4.646 0.588,-0.706 1.199,-1.388 1.837,-2.049 -1.999,2.909 -4.209,5.66 -5.903,8.769 -0.436,0.8 -0.817,1.636 -1.092,2.505"
         style="fill:#343537;fill-opacity:1;fill-rule:nonzero;stroke:none;stroke-width:0.1"
         id="path338" />
      <path
         d="m 227.155,258.393 c 0.435,-0.546 0.827,-1.109 1.221,-1.685 0.455,-0.665 0.955,-1.329 1.582,-1.843 0.615,-0.505 1.412,-0.751 1.62,-1.61 0.099,-0.407 0.15,-0.791 0.458,-1.108 0.215,-0.22 0.544,-0.415 0.85,-0.248 -0.331,-0.049 -0.602,0.149 -0.796,0.397 -0.232,0.298 -0.275,0.64 -0.353,0.995 -0.089,0.41 -0.309,0.745 -0.626,1.017 -0.297,0.254 -0.654,0.417 -0.958,0.663 -1.193,0.961 -1.913,2.355 -2.998,3.422"
         style="fill:#343537;fill-opacity:1;fill-rule:nonzero;stroke:none;stroke-width:0.1"
         id="path340" />
      <path
         d="m 226.944,259.188 0.848,0.711 -0.159,0.189 z"
         style="fill:#343537;fill-opacity:1;fill-rule:nonzero;stroke:none;stroke-width:0.1"
         id="path342" />
      <path
         d="m 184.056,163.577 v 2.154 c 0,0.15 -0.026,0.246 -0.077,0.287 -0.051,0.041 -0.171,0.061 -0.357,0.061 h -1.305 v -2.849 h 1.305 c 0.186,0 0.306,0.02 0.357,0.061 0.051,0.041 0.077,0.137 0.077,0.286 z m -2.692,3.164 h 2.538 c 0.738,0 1.108,-0.296 1.108,-0.886 v -2.401 c 0,-0.591 -0.37,-0.887 -1.108,-0.887 h -1.585 v -2.804 h -0.953 v 6.978"
         style="fill:#f2f2f0;fill-opacity:1;fill-rule:nonzero;stroke:none;stroke-width:0.1"
         id="path898" />
      <path
         d="m 188.558,166.079 v -2.737 h 1.304 c 0.186,0 0.306,0.02 0.357,0.061 0.052,0.041 0.077,0.137 0.077,0.286 v 2.042 c 0,0.15 -0.025,0.246 -0.077,0.287 -0.051,0.041 -0.171,0.061 -0.357,0.061 z m 0,-3.399 v -2.917 h -0.954 v 6.978 h 2.538 c 0.738,0 1.108,-0.296 1.108,-0.886 v -2.289 c 0,-0.531 -0.29,-0.823 -0.87,-0.876 l 1.319,-2.927 h -1.038 l -1.276,2.917 h -0.827"
         style="fill:#f2f2f0;fill-opacity:1;fill-rule:nonzero;stroke:none;stroke-width:0.1"
         id="path900" />
      <path
         d="m 195.079,160.425 h 2.398 v -0.662 h -3.366 v 6.978 h 3.268 v -0.662 h -2.3 v -2.356 h 1.879 v -0.661 h -1.879 v -2.637"
         style="fill:#f2f2f0;fill-opacity:1;fill-rule:nonzero;stroke:none;stroke-width:0.1"
         id="path902" />
      <path
         d="m 200.758,159.763 h -0.827 v 6.978 h 1.052 l 1.5,-4.488 1.515,4.488 h 1.052 v -6.978 h -0.828 v 5.284 l -1.22,-3.77 h -1.023 l -1.221,3.77 v -5.284"
         style="fill:#f2f2f0;fill-opacity:1;fill-rule:nonzero;stroke:none;stroke-width:0.1"
         id="path904" />
      <path
         d="m 208.135,166.741 h 0.953 v -6.978 h -0.953 v 6.978"
         style="fill:#f2f2f0;fill-opacity:1;fill-rule:nonzero;stroke:none;stroke-width:0.1"
         id="path906" />
      <path
         d="m 214.824,166.741 h 0.953 v -6.092 c 0,-0.591 -0.369,-0.886 -1.108,-0.886 h -1.43 c -0.739,0 -1.108,0.295 -1.108,0.886 v 6.092 h 0.953 v -5.969 c 0,-0.149 0.029,-0.245 0.085,-0.286 0.056,-0.041 0.173,-0.061 0.351,-0.061 h 0.869 c 0.177,0 0.295,0.02 0.351,0.061 0.055,0.041 0.084,0.137 0.084,0.286 v 5.969"
         style="fill:#f2f2f0;fill-opacity:1;fill-rule:nonzero;stroke:none;stroke-width:0.1"
         id="path908" />
      <path
         d="m 219.508,159.763 h -0.827 v 6.978 h 1.051 l 1.501,-4.488 1.515,4.488 h 1.051 v -6.978 h -0.827 v 5.284 l -1.22,-3.77 h -1.024 l -1.22,3.77 v -5.284"
         style="fill:#f2f2f0;fill-opacity:1;fill-rule:nonzero;stroke:none;stroke-width:0.1"
         id="path910" />
      <path
         d="m 230.854,165.731 v -4.959 c 0,-0.149 0.027,-0.245 0.083,-0.286 0.056,-0.041 0.173,-0.061 0.351,-0.061 h 0.869 c 0.178,0 0.295,0.02 0.351,0.061 0.055,0.041 0.084,0.137 0.084,0.286 v 4.959 c 0,0.15 -0.029,0.246 -0.084,0.287 -0.056,0.041 -0.173,0.061 -0.351,0.061 h -0.869 c -0.178,0 -0.295,-0.02 -0.351,-0.061 -0.056,-0.041 -0.083,-0.137 -0.083,-0.287 z m 0.153,-5.968 c -0.738,0 -1.108,0.295 -1.108,0.886 v 5.206 c 0,0.59 0.37,0.886 1.108,0.886 h 1.43 c 0.739,0 1.109,-0.296 1.109,-0.886 v -5.206 c 0,-0.531 -0.29,-0.823 -0.87,-0.876 l 0.912,-1.098 h -0.954 l -0.883,1.088 h -0.744"
         style="fill:#f2f2f0;fill-opacity:1;fill-rule:nonzero;stroke:none;stroke-width:0.1"
         id="path912" />
      <path
         d="m 239.07,166.741 h 0.953 v -6.092 c 0,-0.591 -0.369,-0.886 -1.107,-0.886 h -1.431 c -0.738,0 -1.107,0.295 -1.107,0.886 v 6.092 h 0.953 v -5.969 c 0,-0.149 0.028,-0.245 0.084,-0.286 0.057,-0.041 0.173,-0.061 0.351,-0.061 h 0.87 c 0.177,0 0.294,0.02 0.35,0.061 0.056,0.041 0.084,0.137 0.084,0.286 v 5.969"
         style="fill:#f2f2f0;fill-opacity:1;fill-rule:nonzero;stroke:none;stroke-width:0.1"
         id="path914" />
      <path
         d="m 243.769,162.197 h 1.529 l -0.814,4.005 z m 2.019,-2.434 -0.364,1.772 h -1.767 l -0.323,-1.772 h -0.968 l 1.361,6.978 h 1.529 l 1.5,-6.978 h -0.968"
         style="fill:#f2f2f0;fill-opacity:1;fill-rule:nonzero;stroke:none;stroke-width:0.1"
         id="path916" />
      <path
         d="m 250.093,160.425 h 2.006 v -0.662 h -2.959 v 6.978 h 0.953 v -6.316"
         style="fill:#f2f2f0;fill-opacity:1;fill-rule:nonzero;stroke:none;stroke-width:0.1"
         id="path918" />
      <path
         d="m 254.482,166.741 h 0.955 v -6.978 h -0.955 v 6.978"
         style="fill:#f2f2f0;fill-opacity:1;fill-rule:nonzero;stroke:none;stroke-width:0.1"
         id="path920" />
      <path
         d="m 261.578,166.741 v -0.662 h -1.402 v -6.316 h -0.953 v 6.316 h -1.403 v 0.662 h 3.758"
         style="fill:#f2f2f0;fill-opacity:1;fill-rule:nonzero;stroke:none;stroke-width:0.1"
         id="path922" />
      <path
         d="m 265.8,159.763 h -0.954 v 2.132 l -1.725,4.846 h 0.968 l 1.233,-4.094 1.164,4.094 h 0.968 l -1.654,-4.846 v -2.132"
         style="fill:#f2f2f0;fill-opacity:1;fill-rule:nonzero;stroke:none;stroke-width:0.1"
         id="path924" />
      <path
         d="m 168.948,233.397 h 1.847 v -0.637 h -2.592 v 6.717 h 2.516 v -0.637 h -1.771 v -2.268 h 1.447 v -0.637 h -1.447 v -2.538"
         style="fill:#f2f2f0;fill-opacity:1;fill-rule:nonzero;stroke:none;stroke-width:0.1"
         id="path926" />
      <path
         d="m 173.364,233.732 v 1.836 c 0,0.143 -0.021,0.235 -0.064,0.275 -0.043,0.04 -0.134,0.06 -0.27,0.06 h -0.735 c -0.569,0 -0.853,0.284 -0.853,0.853 v 1.868 c 0,0.568 0.284,0.853 0.853,0.853 h 0.951 c 0.568,0 0.853,-0.285 0.853,-0.853 v -1.037 h -0.745 v 0.918 c 0,0.144 -0.02,0.236 -0.06,0.275 -0.039,0.04 -0.131,0.06 -0.275,0.06 h -0.497 c -0.144,0 -0.236,-0.02 -0.275,-0.06 -0.04,-0.039 -0.059,-0.131 -0.059,-0.275 v -1.631 c 0,-0.136 0.019,-0.227 0.059,-0.269 0.039,-0.044 0.131,-0.066 0.275,-0.066 h 0.735 c 0.568,0 0.853,-0.284 0.853,-0.853 v -2.073 c 0,-0.569 -0.285,-0.853 -0.853,-0.853 h -0.94 c -0.569,0 -0.853,0.284 -0.853,0.853 v 1.037 h 0.745 v -0.918 c 0,-0.144 0.02,-0.236 0.059,-0.275 0.04,-0.04 0.132,-0.06 0.276,-0.06 h 0.486 c 0.136,0 0.227,0.02 0.27,0.06 0.043,0.039 0.064,0.131 0.064,0.275"
         style="fill:#f2f2f0;fill-opacity:1;fill-rule:nonzero;stroke:none;stroke-width:0.1"
         id="path928" />
      <path
         d="m 177.49,239.477 v -0.637 h -1.08 v -6.08 h -0.734 v 6.08 h -1.08 v 0.637 h 2.894"
         style="fill:#f2f2f0;fill-opacity:1;fill-rule:nonzero;stroke:none;stroke-width:0.1"
         id="path930" />
      <path
         d="m 180.373,233.732 v 4.773 c 0,0.144 -0.021,0.236 -0.065,0.275 -0.043,0.04 -0.133,0.06 -0.27,0.06 h -1.155 v -5.443 h 1.155 c 0.137,0 0.227,0.02 0.27,0.06 0.044,0.039 0.065,0.131 0.065,0.275 z m -2.235,5.745 h 2.127 c 0.569,0 0.853,-0.285 0.853,-0.853 v -5.011 c 0,-0.569 -0.284,-0.853 -0.853,-0.853 h -2.127 v 6.717"
         style="fill:#f2f2f0;fill-opacity:1;fill-rule:nonzero;stroke:none;stroke-width:0.1"
         id="path932" />
      <path
         d="m 269.743,239.477 v -6.717 h -0.735 v 6.08 h -0.734 v 0.637 h 1.469"
         style="fill:#f2f2f0;fill-opacity:1;fill-rule:nonzero;stroke:none;stroke-width:0.1"
         id="path934" />
      <path
         d="m 271.849,236.194 h 0.95 v 2.311 c 0,0.144 -0.022,0.236 -0.065,0.275 -0.043,0.04 -0.133,0.06 -0.27,0.06 h -0.615 c -0.145,0 -0.236,-0.02 -0.276,-0.06 -0.039,-0.039 -0.059,-0.131 -0.059,-0.275 v -1.976 c 0,-0.137 0.02,-0.227 0.059,-0.27 0.04,-0.043 0.131,-0.065 0.276,-0.065 z m -0.227,3.283 h 1.069 c 0.569,0 0.853,-0.285 0.853,-0.853 v -5.011 c 0,-0.569 -0.284,-0.853 -0.853,-0.853 h -1.058 c -0.569,0 -0.854,0.284 -0.854,0.853 v 1.263 h 0.735 v -1.144 c 0,-0.144 0.02,-0.236 0.059,-0.275 0.04,-0.04 0.131,-0.06 0.276,-0.06 h 0.615 c 0.137,0 0.227,0.02 0.27,0.06 0.043,0.039 0.065,0.131 0.065,0.275 v 1.825 h -1.177 c -0.569,0 -0.853,0.284 -0.853,0.853 v 2.214 c 0,0.568 0.284,0.853 0.853,0.853"
         style="fill:#f2f2f0;fill-opacity:1;fill-rule:nonzero;stroke:none;stroke-width:0.1"
         id="path936" />
      <path
         d="m 276.697,233.732 v 1.749 c 0,0.144 -0.021,0.236 -0.065,0.276 -0.043,0.039 -0.133,0.059 -0.27,0.059 h -0.669 c -0.137,0 -0.227,-0.02 -0.27,-0.059 -0.043,-0.04 -0.065,-0.132 -0.065,-0.276 v -1.749 c 0,-0.144 0.022,-0.236 0.065,-0.275 0.043,-0.04 0.133,-0.06 0.27,-0.06 h 0.669 c 0.137,0 0.227,0.02 0.27,0.06 0.044,0.039 0.065,0.131 0.065,0.275 z m 0,3.067 v 1.706 c 0,0.144 -0.021,0.236 -0.065,0.275 -0.043,0.04 -0.133,0.06 -0.27,0.06 h -0.669 c -0.137,0 -0.227,-0.02 -0.27,-0.06 -0.043,-0.039 -0.065,-0.131 -0.065,-0.275 v -1.706 c 0,-0.144 0.022,-0.236 0.065,-0.275 0.043,-0.04 0.133,-0.06 0.27,-0.06 h 0.669 c 0.137,0 0.227,0.02 0.27,0.06 0.044,0.039 0.065,0.131 0.065,0.275 z m 0.735,1.825 v -1.977 c 0,-0.323 -0.134,-0.496 -0.4,-0.518 0.266,-0.043 0.4,-0.212 0.4,-0.507 v -2.009 c 0,-0.569 -0.285,-0.853 -0.854,-0.853 h -1.101 c -0.569,0 -0.853,0.284 -0.853,0.853 v 2.009 c 0,0.295 0.133,0.464 0.399,0.507 -0.266,0.022 -0.399,0.195 -0.399,0.518 v 1.977 c 0,0.568 0.284,0.853 0.853,0.853 h 1.101 c 0.569,0 0.854,-0.285 0.854,-0.853"
         style="fill:#f2f2f0;fill-opacity:1;fill-rule:nonzero;stroke:none;stroke-width:0.1"
         id="path938" />
      <path
         d="m 280.585,233.732 v 1.749 c 0,0.144 -0.022,0.236 -0.065,0.276 -0.043,0.039 -0.133,0.059 -0.27,0.059 h -0.67 c -0.136,0 -0.226,-0.02 -0.27,-0.059 -0.043,-0.04 -0.064,-0.132 -0.064,-0.276 v -1.749 c 0,-0.144 0.021,-0.236 0.064,-0.275 0.044,-0.04 0.134,-0.06 0.27,-0.06 h 0.67 c 0.137,0 0.227,0.02 0.27,0.06 0.043,0.039 0.065,0.131 0.065,0.275 z m 0,3.067 v 1.706 c 0,0.144 -0.022,0.236 -0.065,0.275 -0.043,0.04 -0.133,0.06 -0.27,0.06 h -0.67 c -0.136,0 -0.226,-0.02 -0.27,-0.06 -0.043,-0.039 -0.064,-0.131 -0.064,-0.275 v -1.706 c 0,-0.144 0.021,-0.236 0.064,-0.275 0.044,-0.04 0.134,-0.06 0.27,-0.06 h 0.67 c 0.137,0 0.227,0.02 0.27,0.06 0.043,0.039 0.065,0.131 0.065,0.275 z m 0.734,1.825 v -1.977 c 0,-0.323 -0.133,-0.496 -0.399,-0.518 0.266,-0.043 0.399,-0.212 0.399,-0.507 v -2.009 c 0,-0.569 -0.284,-0.853 -0.853,-0.853 h -1.101 c -0.569,0 -0.854,0.284 -0.854,0.853 v 2.009 c 0,0.295 0.133,0.464 0.4,0.507 -0.267,0.022 -0.4,0.195 -0.4,0.518 v 1.977 c 0,0.568 0.285,0.853 0.854,0.853 h 1.101 c 0.569,0 0.853,-0.285 0.853,-0.853"
         style="fill:#f2f2f0;fill-opacity:1;fill-rule:nonzero;stroke:none;stroke-width:0.1"
         id="path940" />
      <path
         d="m 181.252,250.772 -7.072,4.438 c -0.057,0.036 -0.072,0.098 -0.036,0.155 l 0.454,0.722 c 0.036,0.058 0.097,0.072 0.153,0.036 l 6.275,-3.937 1.587,2.529 c 0.036,0.057 0.088,0.077 0.145,0.041 l 0.713,-0.447 c 0.056,-0.036 0.071,-0.098 0.035,-0.155 l -2.099,-3.346 c -0.036,-0.057 -0.098,-0.071 -0.155,-0.036"
         style="fill:#f2f2f0;fill-opacity:1;fill-rule:nonzero;stroke:none;stroke-width:0.1"
         id="path942" />
      <path
         d="m 179.552,261.356 c -0.367,-0.468 -0.313,-1.18 0.163,-1.554 l 3.338,-2.616 c 0.459,-0.36 1.207,-0.262 1.567,0.197 0.179,0.229 0.247,0.534 0.212,0.817 l 0.009,-0.007 c -0.05,0.281 -0.195,0.552 -0.425,0.732 l -3.336,2.616 c -0.478,0.374 -1.155,0.292 -1.528,-0.185 z m 5.897,-4.624 c -0.762,-0.971 -2.073,-1.153 -3.053,-0.385 l -3.338,2.616 c -0.961,0.755 -1.101,2.104 -0.354,3.058 0.741,0.944 2.095,1.108 3.04,0.368 l 3.338,-2.617 c 0.961,-0.754 1.122,-2.078 0.367,-3.04"
         style="fill:#f2f2f0;fill-opacity:1;fill-rule:nonzero;stroke:none;stroke-width:0.1"
         id="path944" />
      <path
         d="m 188.023,264.419 c 0.047,0.048 0.11,0.049 0.159,0.002 l 0.684,-0.664 c 0.869,-0.843 0.889,-2.191 0.045,-3.06 -0.874,-0.902 -2.175,-0.937 -3.076,-0.062 l -3.043,2.953 c -0.884,0.859 -0.88,2.199 -0.03,3.077 0.329,0.338 0.778,0.527 1.23,0.605 -0.1,0.315 -0.034,0.626 0.201,0.867 0.046,0.049 0.11,0.05 0.159,0.003 l 2.156,-2.094 c 0.048,-0.047 0.05,-0.11 0.002,-0.158 l -0.593,-0.612 c -0.047,-0.048 -0.11,-0.049 -0.159,-0.003 l -0.684,0.665 c -0.41,0.397 -1.14,0.387 -1.539,-0.023 -0.405,-0.419 -0.426,-1.149 0,-1.563 l 3.041,-2.952 c 0.451,-0.438 1.141,-0.42 1.578,0.031 0.196,0.201 0.287,0.504 0.283,0.773 l 0.008,-0.008 c -0.02,0.285 -0.12,0.586 -0.33,0.789 l -0.684,0.664 c -0.048,0.047 -0.049,0.11 -0.002,0.158 l 0.594,0.612"
         style="fill:#f2f2f0;fill-opacity:1;fill-rule:nonzero;stroke:none;stroke-width:0.1"
         id="path946" />
      <path
         d="m 189.456,269.183 1.137,-2.635 1.217,0.994 z m 4.907,-3.454 -1.637,1.17 -1.669,-1.363 0.794,-1.859 c 0.012,-0.033 0.01,-0.137 -0.025,-0.165 l -0.66,-0.54 c -0.044,-0.035 -0.145,-0.017 -0.173,0.034 l -3.476,7.912 c -0.019,0.042 -0.01,0.137 0.025,0.165 l 0.443,0.362 c 0.035,0.028 0.137,0.01 0.167,-0.008 l 7.065,-4.981 c 0.046,-0.037 0.043,-0.141 -0.001,-0.176 l -0.686,-0.56 c -0.035,-0.029 -0.131,-0.019 -0.167,0.009"
         style="fill:#f2f2f0;fill-opacity:1;fill-rule:nonzero;stroke:none;stroke-width:0.1"
         id="path948" />
      <path
         d="m 196.009,266.959 -4.512,7.029 c -0.036,0.057 -0.022,0.119 0.034,0.155 l 0.718,0.461 c 0.057,0.037 0.119,0.023 0.155,-0.034 l 4.003,-6.235 2.513,1.613 c 0.057,0.037 0.113,0.033 0.149,-0.024 l 0.454,-0.709 c 0.038,-0.057 0.024,-0.119 -0.033,-0.155 l -3.325,-2.135 c -0.057,-0.036 -0.12,-0.022 -0.156,0.034"
         style="fill:#f2f2f0;fill-opacity:1;fill-rule:nonzero;stroke:none;stroke-width:0.1"
         id="path950" />
      <path
         d="m 203.01,271.036 c 0.028,-0.061 0.005,-0.121 -0.056,-0.149 l -0.766,-0.351 c -0.061,-0.029 -0.119,-0.006 -0.147,0.055 l -3.482,7.588 c -0.028,0.06 -0.006,0.12 0.055,0.149 l 3.579,1.642 c 0.062,0.028 0.121,0.006 0.149,-0.055 l 0.356,-0.775 c 0.029,-0.062 0.006,-0.121 -0.055,-0.149 l -2.713,-1.245 0.918,-1.999 1.346,0.617 c 0.062,0.029 0.121,0.007 0.149,-0.054 l 0.35,-0.765 c 0.029,-0.061 0.006,-0.121 -0.055,-0.149 l -1.346,-0.618 1.718,-3.742"
         style="fill:#f2f2f0;fill-opacity:1;fill-rule:nonzero;stroke:none;stroke-width:0.1"
         id="path952" />
      <path
         d="m 207.499,279.041 0.106,-2.868 1.493,0.485 z m 3.32,-4.996 -1.1,1.683 -2.048,-0.665 0.064,-2.019 c 0,-0.035 -0.039,-0.131 -0.081,-0.145 l -0.811,-0.263 c -0.053,-0.017 -0.142,0.037 -0.149,0.093 l -0.371,8.629 c -0.004,0.047 0.04,0.131 0.082,0.145 l 0.544,0.177 c 0.043,0.014 0.131,-0.04 0.152,-0.069 l 4.777,-7.198 c 0.028,-0.05 -0.011,-0.146 -0.064,-0.163 l -0.843,-0.274 c -0.043,-0.014 -0.128,0.03 -0.152,0.069"
         style="fill:#f2f2f0;fill-opacity:1;fill-rule:nonzero;stroke:none;stroke-width:0.1"
         id="path954" />
      <path
         d="m 214.648,280.252 c 0.022,0.005 0.081,0.051 0.091,0.063 0.002,0.047 0.035,0.11 0.026,0.154 l -0.357,1.793 c -0.016,0.077 -0.118,0.137 -0.189,0.146 l -1.826,-0.365 0.43,-2.155 z m -1.857,-5.653 -1.631,8.182 c -0.014,0.066 0.022,0.119 0.088,0.132 l 2.76,0.55 c 0.682,0.136 1.322,-0.32 1.456,-0.99 l 0.356,-1.793 c 0.049,-0.242 0.022,-0.51 -0.081,-0.736 0.183,-0.17 0.307,-0.397 0.356,-0.638 l 0.694,-3.486 c 0.044,-0.22 0.284,-0.276 0.302,-0.363 0.013,-0.066 -0.022,-0.12 -0.089,-0.133 l -1.055,-0.21 c -0.066,-0.013 -0.119,0.022 -0.132,0.088 l -0.776,3.893 c -0.058,0.057 -0.1,0.095 -0.183,0.113 l -1.825,-0.365 0.805,-4.035 c 0.013,-0.067 -0.022,-0.12 -0.088,-0.133 l -0.825,-0.164 c -0.067,-0.013 -0.119,0.022 -0.132,0.088"
         style="fill:#f2f2f0;fill-opacity:1;fill-rule:nonzero;stroke:none;stroke-width:0.1"
         id="path956" />
      <path
         d="m 219.045,275.69 c 0.006,-0.067 -0.035,-0.116 -0.102,-0.121 l -0.838,-0.071 c -0.067,-0.006 -0.094,0.048 -0.099,0.104 l -0.703,8.315 c -0.005,0.056 0.013,0.113 0.08,0.119 l 0.738,0.062 c 0.131,-0.09 0.164,-0.211 0.221,-0.353 l 1.82,-4.348 1.076,4.582 v -0.011 c 0.015,0.091 0,0.393 0.145,0.406 l 0.749,0.063 c 0.068,0.006 0.116,-0.035 0.122,-0.102 l 0.702,-8.314 c 0.005,-0.067 -0.036,-0.116 -0.102,-0.122 l -0.848,-0.071 c -0.056,-0.005 -0.107,0.047 -0.111,0.103 l -0.375,4.437 c -0.223,-0.954 -0.447,-1.907 -0.67,-2.86 l -0.308,-1.286 c -0.007,-0.046 -0.048,-0.095 -0.104,-0.099 -0.044,-0.004 -0.093,0.037 -0.108,0.081 -0.551,1.326 -1.102,2.642 -1.663,3.967 l 0.378,-4.481"
         style="fill:#f2f2f0;fill-opacity:1;fill-rule:nonzero;stroke:none;stroke-width:0.1"
         id="path958" />
      <path
         d="m 226.87,275.962 c -0.004,-0.067 -0.053,-0.109 -0.12,-0.105 l -0.839,0.059 c -0.067,0.005 -0.109,0.053 -0.104,0.12 l 0.582,8.325 c 0.005,0.067 0.052,0.109 0.12,0.104 l 3.928,-0.275 c 0.067,-0.004 0.108,-0.052 0.104,-0.12 l -0.06,-0.85 c -0.004,-0.067 -0.052,-0.109 -0.12,-0.104 l -2.976,0.208 -0.154,-2.193 1.477,-0.103 c 0.067,-0.005 0.108,-0.053 0.104,-0.12 l -0.058,-0.839 c -0.005,-0.067 -0.054,-0.109 -0.121,-0.104 l -1.475,0.103 -0.288,-4.106"
         style="fill:#f2f2f0;fill-opacity:1;fill-rule:nonzero;stroke:none;stroke-width:0.1"
         id="path960" />
      <path
         d="m 234.659,280.292 c 0.023,-0.003 0.093,0.019 0.107,0.028 0.017,0.043 0.071,0.09 0.079,0.135 l 0.301,1.804 c 0.012,0.078 -0.063,0.17 -0.125,0.203 l -1.838,0.307 -0.363,-2.17 z m -3.742,-4.633 1.372,8.237 c 0.012,0.067 0.064,0.104 0.13,0.093 l 2.778,-0.464 c 0.687,-0.114 1.124,-0.767 1.011,-1.443 l -0.3,-1.804 c -0.041,-0.244 -0.161,-0.486 -0.338,-0.661 0.111,-0.223 0.148,-0.479 0.108,-0.723 l -0.585,-3.51 c -0.037,-0.221 0.167,-0.358 0.152,-0.447 -0.012,-0.066 -0.063,-0.103 -0.13,-0.092 l -1.062,0.177 c -0.067,0.012 -0.104,0.063 -0.092,0.129 l 0.653,3.92 c -0.033,0.074 -0.058,0.123 -0.131,0.17 l -1.838,0.306 -0.677,-4.063 c -0.012,-0.067 -0.064,-0.103 -0.129,-0.092 l -0.83,0.138 c -0.067,0.011 -0.104,0.063 -0.092,0.129"
         style="fill:#f2f2f0;fill-opacity:1;fill-rule:nonzero;stroke:none;stroke-width:0.1"
         id="path962" />
      <path
         d="m 240.32,274.551 c 0.065,-0.018 0.099,-0.062 0.081,-0.127 l -0.224,-0.811 c -0.019,-0.065 -0.074,-0.096 -0.139,-0.078 l -3.805,1.054 c -0.066,0.017 -0.097,0.073 -0.079,0.138 l 2.227,8.043 c 0.018,0.065 0.074,0.097 0.139,0.079 l 3.805,-1.055 c 0.065,-0.017 0.096,-0.073 0.077,-0.137 l -0.225,-0.822 c -0.019,-0.064 -0.074,-0.096 -0.139,-0.078 l -2.876,0.796 -0.586,-2.118 1.438,-0.399 c 0.064,-0.018 0.094,-0.073 0.078,-0.138 l -0.225,-0.811 c -0.018,-0.065 -0.073,-0.096 -0.138,-0.078 l -1.438,0.398 -0.847,-3.059 2.876,-0.797"
         style="fill:#f2f2f0;fill-opacity:1;fill-rule:nonzero;stroke:none;stroke-width:0.1"
         id="path964" />
      <path
         d="m 246.957,276.664 -0.795,0.312 c -0.061,0.024 -0.086,0.082 -0.062,0.145 l 0.337,0.857 c 0.212,0.543 -0.084,1.202 -0.617,1.412 -0.543,0.213 -1.224,-0.05 -1.442,-0.603 -0.841,-2.142 2.827,-1.799 1.534,-5.089 -0.443,-1.128 -1.684,-1.738 -2.832,-1.287 -1.161,0.456 -1.705,1.647 -1.245,2.817 l 0.364,0.93 c 0.025,0.062 0.083,0.087 0.147,0.063 l 0.783,-0.308 c 0.062,-0.025 0.088,-0.083 0.063,-0.145 l -0.365,-0.93 c -0.23,-0.586 0.053,-1.215 0.638,-1.445 0.262,-0.102 0.578,-0.094 0.836,0.009 l -0.015,-0.006 c 0.273,0.171 0.499,0.382 0.618,0.686 0.986,2.507 -2.738,1.992 -1.563,4.98 0.464,1.18 1.662,1.806 2.874,1.331 1.087,-0.428 1.651,-1.723 1.224,-2.809 l -0.337,-0.857 c -0.024,-0.063 -0.083,-0.088 -0.145,-0.063"
         style="fill:#f2f2f0;fill-opacity:1;fill-rule:nonzero;stroke:none;stroke-width:0.1"
         id="path966" />
      <path
         d="m 245.985,271.327 3.853,7.41 c 0.032,0.06 0.093,0.079 0.152,0.048 l 0.757,-0.393 c 0.061,-0.032 0.079,-0.092 0.048,-0.152 l -1.46,-2.808 1.792,-0.932 1.461,2.808 c 0.031,0.06 0.092,0.079 0.151,0.047 l 0.747,-0.387 c 0.061,-0.031 0.08,-0.092 0.048,-0.152 l -3.852,-7.411 c -0.032,-0.06 -0.092,-0.078 -0.153,-0.048 l -0.746,0.389 c -0.06,0.031 -0.08,0.092 -0.048,0.151 l 1.901,3.656 -1.793,0.932 -1.902,-3.655 c -0.03,-0.06 -0.09,-0.079 -0.151,-0.048 l -0.756,0.393 c -0.06,0.032 -0.08,0.092 -0.049,0.152"
         style="fill:#f2f2f0;fill-opacity:1;fill-rule:nonzero;stroke:none;stroke-width:0.1"
         id="path968" />
      <path
         d="m 252.963,267.316 c -0.04,-0.054 -0.103,-0.064 -0.157,-0.024 l -0.681,0.495 c -0.055,0.039 -0.04,0.097 -0.007,0.143 l 4.909,6.752 c 0.033,0.045 0.084,0.077 0.139,0.038 l 0.599,-0.436 c 0.041,-0.154 -0.015,-0.267 -0.064,-0.411 l -1.469,-4.482 3.813,2.763 -0.006,-0.008 c 0.07,0.059 0.258,0.297 0.375,0.211 l 0.608,-0.442 c 0.055,-0.04 0.065,-0.103 0.026,-0.156 l -4.909,-6.752 c -0.04,-0.054 -0.103,-0.065 -0.158,-0.025 l -0.69,0.501 c -0.045,0.034 -0.048,0.105 -0.015,0.151 l 2.62,3.602 c -0.792,-0.574 -1.585,-1.15 -2.378,-1.724 l -1.075,-0.773 c -0.035,-0.03 -0.098,-0.04 -0.143,-0.007 -0.037,0.027 -0.046,0.09 -0.029,0.132 0.451,1.365 0.895,2.72 1.337,4.092 l -2.645,-3.64"
         style="fill:#f2f2f0;fill-opacity:1;fill-rule:nonzero;stroke:none;stroke-width:0.1"
         id="path970" />
      <path
         d="m 260.497,262.364 c 0.051,-0.046 0.061,-0.101 0.016,-0.151 l -0.567,-0.623 c -0.046,-0.049 -0.108,-0.052 -0.159,-0.007 l -2.923,2.657 c -0.05,0.046 -0.052,0.109 -0.007,0.159 l 5.617,6.179 c 0.046,0.05 0.109,0.053 0.159,0.008 l 2.923,-2.658 c 0.049,-0.045 0.053,-0.109 0.007,-0.158 l -0.574,-0.632 c -0.044,-0.049 -0.108,-0.052 -0.157,-0.007 l -2.21,2.009 -1.479,-1.629 1.104,-1.003 c 0.05,-0.046 0.053,-0.11 0.007,-0.159 l -0.567,-0.623 c -0.043,-0.05 -0.108,-0.053 -0.157,-0.008 l -1.105,1.004 -2.137,-2.35 2.209,-2.008"
         style="fill:#f2f2f0;fill-opacity:1;fill-rule:nonzero;stroke:none;stroke-width:0.1"
         id="path972" />
      <path
         d="m 266.775,262.696 -2.595,-1.225 1.033,-1.183 z m -3.288,-5.021 1.115,1.675 -1.418,1.623 -1.83,-0.856 c -0.034,-0.013 -0.137,-0.014 -0.167,0.019 l -0.561,0.642 c -0.037,0.043 -0.022,0.144 0.027,0.173 l 7.791,3.741 c 0.041,0.021 0.136,0.015 0.166,-0.019 l 0.376,-0.431 c 0.03,-0.034 0.015,-0.136 -0.003,-0.167 l -4.741,-7.229 c -0.034,-0.046 -0.137,-0.047 -0.174,-0.005 l -0.584,0.667 c -0.029,0.034 -0.022,0.13 0.003,0.167"
         style="fill:#f2f2f0;fill-opacity:1;fill-rule:nonzero;stroke:none;stroke-width:0.1"
         id="path974" />
      <path
         d="m 266.271,253.902 c -0.055,-0.038 -0.119,-0.027 -0.157,0.029 l -0.484,0.702 c -0.039,0.055 -0.026,0.117 0.028,0.156 l 6.077,4.198 -0.823,1.192 c -0.038,0.055 -0.027,0.118 0.028,0.156 l 0.703,0.485 c 0.055,0.039 0.118,0.027 0.156,-0.028 l 2.246,-3.251 c 0.038,-0.056 0.027,-0.118 -0.029,-0.156 l -0.702,-0.486 c -0.055,-0.038 -0.118,-0.026 -0.156,0.029 l -0.809,1.173 -6.078,-4.199"
         style="fill:#f2f2f0;fill-opacity:1;fill-rule:nonzero;stroke:none;stroke-width:0.1"
         id="path976" />
      <path
         d="m 179.924,183.359 h 1.649 l 1.259,1.15 v -5.666 l -1.259,1.122 h -1.649 v -7.172 l 0.412,-0.739 h -5.034 l 0.412,0.739 v 17.738 l -0.412,0.767 h 8.332 v -5.229 l -1.258,1.15 h -2.452 v -3.86"
         style="fill:#f2f2f0;fill-opacity:1;fill-rule:nonzero;stroke:none;stroke-width:0.1"
         id="path978"
         inkscape:label="path978" />
      <path
         d="m 190.167,182.675 c 0.456,0 0.846,0.466 0.846,1.04 v 2.436 c 0,0.603 -0.369,1.068 -0.846,1.068 h -0.825 v -4.544 z m 5.034,2.272 c 0,-2.026 -0.76,-3.915 -1.974,-5.092 l 1.627,-7.062 0.585,-0.739 h -5.033 l 0.238,0.739 -1.302,5.775 v -5.775 l 0.413,-0.739 h -5.034 l 0.412,0.739 v 17.738 l -0.412,0.767 h 5.641 c 2.691,0 4.839,-2.929 4.839,-6.351"
         style="fill:#f2f2f0;fill-opacity:1;fill-rule:nonzero;stroke:none;stroke-width:0.1"
         id="path980" />
      <path
         d="m 202.363,183.359 1.259,1.15 v -5.666 l -1.259,1.122 h -1.649 v -3.832 h 2.453 l 1.258,1.122 v -5.201 h -8.332 l 0.412,0.739 v 17.738 l -0.412,0.767 h 8.332 v -5.229 l -1.258,1.15 h -2.453 v -3.86 h 1.649"
         style="fill:#f2f2f0;fill-opacity:1;fill-rule:nonzero;stroke:none;stroke-width:0.1"
         id="path982" />
      <path
         d="m 205.511,178.404 h 4.621 l -0.434,-0.739 v -0.492 c 0,-0.575 0.369,-1.04 0.847,-1.04 0.455,0 0.824,0.465 0.824,1.04 v 1.259 c 0,0.602 -0.369,1.068 -0.824,1.068 -6.466,0 -6.466,11.798 0,11.798 2.777,0 5.034,-2.847 5.034,-6.351 h -4.622 l 0.412,0.74 v 0.464 c 0,0.603 -0.369,1.068 -0.824,1.068 -0.456,0 -0.847,-0.465 -0.847,-1.068 v -1.533 c 0,-0.574 0.391,-1.04 0.847,-1.04 6.444,0 6.444,-11.524 0,-11.524 -2.777,0 -5.034,2.846 -5.034,6.35"
         style="fill:#f2f2f0;fill-opacity:1;fill-rule:nonzero;stroke:none;stroke-width:0.1"
         id="path984" />
      <path
         d="m 220.854,190.531 v -6.816 h 2.43 v 6.816 l -0.434,0.767 h 5.034 l -0.412,-0.767 v -17.738 l 0.412,-0.739 h -5.034 l 0.434,0.739 v 6.844 h -2.43 v -6.844 l 0.412,-0.739 h -5.034 l 0.412,0.739 v 17.738 l -0.412,0.767 h 5.034 l -0.412,-0.767"
         style="fill:#f2f2f0;fill-opacity:1;fill-rule:nonzero;stroke:none;stroke-width:0.1"
         id="path986" />
      <path
         d="m 239.019,176.105 h 0.824 c 0.477,0 0.845,0.493 0.845,1.068 v 2.436 c 0,0.575 -0.389,1.068 -0.845,1.068 h -0.824 z m 0,7.5 h 0.824 c 0.456,0 0.845,0.466 0.845,1.041 v 1.505 c 0,0.603 -0.389,1.068 -0.845,1.068 h -0.824 z m -4.623,-11.551 0.413,0.739 v 17.738 l -0.413,0.767 h 5.642 c 2.691,-0.137 4.839,-2.929 4.839,-6.351 0,-1.205 -0.261,-2.3 -0.717,-3.258 0.456,-0.958 0.717,-2.08 0.717,-3.285 0,-3.394 -2.148,-6.214 -4.839,-6.35 h -5.642"
         style="fill:#f2f2f0;fill-opacity:1;fill-rule:nonzero;stroke:none;stroke-width:0.1"
         id="path988" />
      <path
         d="m 252.233,183.359 1.259,1.15 v -5.666 l -1.259,1.122 h -1.648 v -3.832 h 2.451 l 1.259,1.122 v -5.201 h -8.332 l 0.412,0.739 v 17.738 l -0.412,0.767 h 8.332 v -5.229 l -1.259,1.15 h -2.451 v -3.86 h 1.648"
         style="fill:#f2f2f0;fill-opacity:1;fill-rule:nonzero;stroke:none;stroke-width:0.1"
         id="path990" />
      <path
         d="m 261.652,183.359 1.259,1.15 v -5.666 l -1.259,1.122 h -1.648 v -3.832 h 2.451 l 1.259,1.122 v -5.201 h -8.332 l 0.412,0.739 v 17.738 l -0.412,0.767 h 8.332 v -5.229 l -1.259,1.15 h -2.451 v -3.86 h 1.648"
         style="fill:#f2f2f0;fill-opacity:1;fill-rule:nonzero;stroke:none;stroke-width:0.1"
         id="path992" />
      <path
         d="m 269.422,183.359 h 1.648 l 1.259,1.15 v -5.666 l -1.259,1.122 h -1.648 v -7.172 l 0.412,-0.739 H 264.8 l 0.412,0.739 v 17.738 l -0.412,0.767 h 8.332 v -5.229 l -1.259,1.15 h -2.451 v -3.86"
         style="fill:#f2f2f0;fill-opacity:1;fill-rule:nonzero;stroke:none;stroke-width:0.1"
         id="path994" />
    </g>
  </g>
</svg>
